<svg xmlns="http://www.w3.org/2000/svg" height="1024" preserveAspectRatio="none" style="display: block;" version="1.1" viewBox="0 0 2048 2048" width="1024">
<defs>
	<linearGradient gradientUnits="userSpaceOnUse" id="Gradient1" x1="1166.42" x2="1171.99" y1="976.429" y2="956.497">
		<stop class="stop0" offset="0" stop-color="rgb(27,36,26)" stop-opacity="1"></stop>
		<stop class="stop1" offset="1" stop-color="rgb(30,32,36)" stop-opacity="1"></stop>
	</linearGradient>
</defs>
<path d="M 0 0 L 2048 0 L 2048 2048 L 0 2048 L 0 0 z" fill="rgb(34,39,41)" transform="translate(0,0)"></path>
<path d="M 195.228 493.294 C 284.713 496.725 349.801 504.055 437.926 526.378 C 476.314 535.772 513.938 548.053 550.477 563.114 C 568.846 570.54 594.588 580.711 611.124 590.797 C 660.364 620.833 697.792 673.539 731.13 719.63 C 752.253 748.833 773.396 773.004 791.6 804.027 C 840.743 887.775 855.224 964.102 831.26 1058.78 C 827.679 1050.61 810.267 1018.74 809.808 1013.29 C 805.648 963.92 801.907 913.004 784.342 865.777 C 791.235 910.032 793.968 950.233 796.368 994.767 C 779.859 963.331 747.873 913.601 727.305 885.488 C 734.79 829.686 736.46 787.79 724.947 731.827 C 727.287 777.664 724.102 823.617 715.46 868.693 C 690.488 834.01 663.704 800.669 635.22 768.808 C 640.938 727.898 640.902 672.559 619.662 636.34 C 631.15 681.316 629.754 712.951 624.761 758.413 C 594.968 726.84 569.45 704.778 536.949 676.094 C 537.403 636.78 537.166 611.185 519.965 573.787 C 527.212 610.741 527.034 631.255 524.907 667.935 C 495.645 644.031 459.782 624.035 434.366 597.426 C 427.034 589.749 414.208 568.113 408.248 558.404 C 414.639 577.372 421.649 589.888 431.191 607.174 C 425.499 603.693 419.259 600.043 413.347 596.971 C 353.456 565.849 292.341 533.737 230.089 507.517 C 236.244 511.971 243.444 516.616 250.088 520.254 C 291.98 543.196 333.611 565.085 374.483 589.903 C 347.345 590.723 328.888 590.077 305.514 604.382 C 385.816 585.343 391.756 602.802 450.373 647.009 C 413.339 646.253 388.077 648.141 355.613 667.841 C 381.617 659.277 403.858 656.094 431.24 657.057 C 438.944 657.328 461.689 658.608 467.887 662.444 C 494.861 679.138 532.267 716.434 553.6 739.103 C 518.061 728.81 465.938 734.035 431.624 747.214 C 422.249 750.814 412.848 755.324 403.754 759.695 L 403.855 760.492 C 411.478 759.474 429.033 750.834 438.479 748.769 C 474.643 740.861 507.025 741.601 542.834 748.844 C 549.098 750.495 567.817 755.454 572.054 758.966 C 596.357 779.107 623.344 815.672 642.477 840.039 C 583.87 827.011 508.828 830.76 468.89 881.993 C 500.945 857.985 521.28 850.013 562.025 846.671 C 596.664 843.831 622.247 847.811 655.333 856.686 C 671.801 875.638 714.814 941.458 727.024 964.783 C 683.649 951.158 631.457 950.588 587.77 961.348 C 579.252 963.446 567.056 966.306 559.811 971.302 C 619.213 959.374 679.076 961.086 736.537 981.497 C 744.191 993.557 752.485 1009.09 759.678 1021.81 L 802.437 1098.07 C 752.65 1108.29 701.09 1105.8 652.521 1090.83 C 482.84 1038.34 373.644 863.211 326.905 700.989 C 316.079 663.416 307.93 623.809 289.653 588.949 C 304.251 642.774 314.942 700.314 332.556 753.11 C 394.424 938.545 557.62 1129.65 771.585 1110.03 C 784.956 1108.81 798.097 1106.81 811.407 1105.88 C 774.232 1129.32 705.25 1126.11 664.354 1115.92 C 488.322 1072.05 370.919 913.478 314.375 749.244 C 306.257 725.198 299.323 700.768 293.599 676.043 C 287.408 650.158 281.909 620.888 270.7 596.973 C 257.678 569.19 238.401 542.836 218.523 519.485 C 212.716 512.663 199.179 499.815 195.228 493.294 z" fill="rgb(125,215,151)" transform="translate(0,0)"></path>
<path d="M 1463.46 237.485 C 1519.62 236.359 1567.45 240.029 1620.72 259.112 C 1723.97 296.103 1808.81 398.833 1853.87 496.018 C 1838.87 489.811 1823.83 486.327 1807.79 483.688 C 1711.44 467.843 1639.72 519.259 1558.73 559.774 C 1517.28 580.509 1466.45 603.458 1422.21 616.326 C 1371.16 631.172 1304.6 643.216 1254.63 621.634 C 1231.41 611.607 1204.53 594.463 1181.75 581.827 C 1196.25 566.189 1220.52 543.887 1237.59 531.539 C 1286.36 533.225 1326.94 556.037 1362.35 588.18 C 1343.95 555.408 1289.56 523.583 1252.16 519.413 C 1256.22 516.945 1260.36 514.133 1264.27 511.405 C 1285.29 496.72 1306.75 483.979 1329.73 472.481 C 1399.06 490.354 1416.77 505.496 1466.67 552.764 C 1448.83 512.432 1389.94 471.946 1346.61 464.76 C 1365.04 454.898 1401.03 438.073 1420.59 432.649 C 1449.96 439.819 1491.52 462.066 1513.76 481.531 C 1521.46 488.27 1528.74 497.048 1536.55 503.697 L 1536.68 502.611 C 1531.15 495.398 1524.81 489.177 1519.18 482.56 C 1494.42 453.417 1475.59 442.534 1441.67 427.272 C 1466.34 417.559 1519.93 406.573 1547.88 407.207 C 1556.03 407.391 1576.43 423.796 1584.15 429.818 C 1604.4 447.37 1612.92 457.799 1628.69 479.455 C 1613.67 446.053 1594.18 426.549 1565.94 405.104 C 1581.8 404.721 1597.76 404.399 1613.62 404.555 C 1652.69 404.939 1680.7 441.796 1700.97 471.207 C 1691.51 443.348 1677.19 426.784 1655.47 408.196 C 1710.35 415.089 1739.8 428.122 1787.73 452.939 C 1751.92 420.579 1690.98 393.511 1643.89 382.397 C 1623.52 377.589 1601.14 374.99 1580.41 372.74 C 1601.55 351.91 1613.37 346.357 1637.51 331.85 C 1606.7 339.544 1586.02 354.631 1560.76 372.764 C 1512.29 373.576 1484.54 378.286 1436.54 386.651 C 1460.04 343.039 1481.37 312.473 1515.57 277.113 C 1472.47 299.092 1442.41 353.964 1415.61 392.017 C 1392.26 398.699 1369.02 405.763 1345.91 413.204 C 1358.06 375.959 1362.81 349.349 1369.26 310.081 C 1355.08 343.106 1346.57 390.014 1327.08 421.714 C 1303.04 431.362 1276.52 444.076 1253.65 456.017 C 1257.7 422.494 1262.99 389.132 1269.5 355.998 C 1254.48 389.11 1245.71 430.548 1237.09 466.198 C 1228.59 472.883 1215.51 480.801 1206.13 487.541 C 1187.78 500.878 1169.88 514.837 1152.48 529.393 C 1154.83 513.779 1155.77 498.515 1159.03 482.859 C 1171.76 421.816 1198.88 363.974 1241.73 318.344 C 1301.38 254.813 1380.55 239.881 1463.46 237.485 z" fill="rgb(125,215,151)" transform="translate(0,0)"></path>
<path d="M 1514.41 387.448 C 1517.74 387.724 1520.11 387.437 1522.44 389.638 C 1385.14 410.568 1223.18 499.747 1140.32 612.282 C 1059.28 724.35 1000.23 850.776 966.31 984.853 C 961.404 1005.01 953.905 1037.99 952.271 1058.39 C 973.072 1037.03 995.06 1015.2 1017.83 995.922 C 1091.08 934.111 1177.22 889.465 1269.96 865.254 C 1293.22 859.284 1317.09 855.164 1340.78 851.374 L 1341.56 853.66 C 1203.46 873.095 1079.47 946.908 986.273 1048.25 C 973.365 1062.28 960.215 1076.15 947.211 1090.1 C 935.56 1199.02 945.956 1309.18 977.781 1414 C 989.322 1451.09 1005.74 1491.4 1019.72 1527.81 C 1063.54 1509.54 1100.26 1493.09 1147.46 1480.96 C 1242.73 1456.48 1347.1 1445.95 1444.31 1464.8 C 1459.35 1467.72 1486.32 1473.92 1499.16 1481.26 C 1378.02 1455.85 1238.07 1474.28 1123.01 1517.08 C 965.472 1575.68 788.961 1693.07 715.978 1849.18 C 733.972 1853.76 752.562 1856.73 770.849 1859.97 C 863.74 1876.43 958.81 1881.51 1053.05 1880.92 C 1215.78 1879.89 1502.53 1840.59 1621.39 1719.15 C 1646.02 1693.98 1664.79 1662.46 1664.28 1626.38 C 1663.72 1587.09 1639.06 1551.63 1611.94 1525.16 C 1582.34 1496.27 1546.65 1476.69 1509.58 1459.17 C 1377.2 1396.6 1216.64 1373.08 1071.42 1369.46 C 1048.24 1368.89 1024.97 1369.54 1001.78 1369.87 C 1001.15 1366.45 1000.09 1362.54 999.267 1359.12 C 1066.44 1357.16 1132.31 1358.77 1199.07 1366.75 C 1337.16 1383.26 1554.88 1429.53 1644.72 1544.67 C 1667.56 1573.94 1679.62 1608.15 1674.62 1645.39 C 1668.68 1689.76 1634.16 1727.41 1599.91 1753.59 C 1574.56 1772.97 1546.53 1787.96 1517.82 1801.68 C 1320.3 1896.13 1028.95 1906.92 814.162 1878.31 C 685.715 1861.19 479.107 1811.82 397.524 1704.07 C 377.677 1677.86 365.385 1646.32 370.135 1613.11 C 377.003 1565.1 413.611 1524.56 450.951 1496.43 C 547.129 1423.97 689.934 1388.74 807.856 1374.74 C 824.149 1372.81 857.89 1367.28 872.824 1369.4 C 875.29 1372.96 874.867 1371.13 875.051 1374.82 C 872.823 1377.86 870.355 1379.39 866.403 1379.71 C 850.681 1380.98 835.456 1382.14 819.758 1383.97 C 784.936 1387.91 750.322 1393.51 716.034 1400.75 C 613.571 1422.37 466.222 1469.7 403.118 1561.86 C 386.527 1586.09 377.044 1618.96 383.751 1648.38 C 394.85 1697.08 440.479 1736.07 481.363 1761.72 C 519.99 1700.96 568.168 1647.49 627.328 1606.11 C 702.916 1553.44 789.334 1518.35 880.246 1503.42 C 890.812 1501.78 916.042 1497.88 925.498 1499.55 C 922.662 1501.09 900.076 1505.43 894.83 1506.54 C 750.892 1537.12 577.012 1641.65 510.038 1777.56 C 532.229 1790.87 553.192 1798.14 576.665 1808.26 C 608.222 1821.86 638.092 1829.84 671.123 1838.72 C 703.01 1771.34 764.054 1698.95 820.602 1650.73 C 859.85 1617.27 925.462 1574.56 972.051 1550.05 C 940.264 1481.38 910.588 1399.63 898.781 1324.77 C 895.503 1303.75 892.878 1282.64 890.909 1261.47 C 889.892 1250.28 890.019 1238.39 888.068 1227.38 C 887.061 1221.7 843.718 1147.25 836.199 1133.21 C 822.09 1106.88 806.734 1081.21 792.308 1055.03 C 719.421 922.787 650.947 806.877 538.059 703.269 C 506.745 673.975 473.138 647.233 437.56 623.297 L 438.394 621.434 C 461.873 633.851 499.731 663.744 520.288 680.774 C 626.894 768.587 716.219 875.481 783.696 995.991 C 797.423 1019.79 810.608 1043.9 823.242 1068.3 C 843.243 1106.9 864.47 1149.45 889.768 1184.93 C 889.263 1161.28 892.029 1128.54 894.676 1104.99 C 907.07 984.696 947.905 879.155 998.877 771.314 C 1106.86 542.84 1260.67 421.479 1514.41 387.448 z" fill="rgb(125,215,151)" transform="translate(0,0)"></path>
<path d="M 979.663 1485.31 C 976.542 1475.47 970.139 1461.43 966.348 1450.79 C 943.584 1387.95 929.097 1322.42 923.254 1255.84 C 906.909 1083.41 946.704 933.176 1020.23 778.193 C 1021.67 779.936 1015.91 791.723 1014.85 794.183 C 1000.51 826.455 988.059 859.533 977.554 893.247 C 961.716 942.73 946.392 998.06 938.239 1049.29 C 920.239 1162.4 926.479 1284.1 954.023 1395.17 C 961.792 1426.5 971.101 1454.45 981.459 1484.7 L 979.663 1485.31 z" fill="rgb(34,39,41)" transform="translate(0,0)"></path>
<path d="M 981.459 1484.7 C 983.848 1490.48 986.291 1495.55 987.416 1501.68 L 986.585 1501.05 L 987.26 1500.64 L 985.779 1499.74 C 983.302 1494.58 981.711 1490.62 979.663 1485.31 L 981.459 1484.7 z" fill="rgb(33,48,37)" transform="translate(0,0)"></path>
<path d="M 621.646 113.362 C 733.905 126.374 885.119 161.366 972.708 240.231 C 1005.6 269.844 1039.27 328.601 1060.76 367.635 C 1092.32 424.975 1093.8 474.793 1073.35 536.142 C 1071.77 531.912 1063.79 515.244 1063.78 512.32 C 1063.78 492.613 1068.88 471.085 1070.12 450.24 L 1069.1 446.614 C 1066.23 464.273 1062.37 479.457 1058.11 496.77 C 1051.89 485.009 1045.68 473.462 1040 461.423 C 1044.69 432.808 1048.01 418.327 1049.03 388.573 L 1046.42 385.74 C 1043.83 404.919 1038.67 432.84 1033.71 451.8 C 1021 428.746 1008.92 409.737 994.809 387.587 C 1000.75 359.102 998.756 307.806 990.359 280.882 C 991.709 318.024 991.322 339.998 987.406 376.903 C 972.81 354.23 944.364 321.837 925.986 302.126 C 926.025 271.437 927.191 240.294 905.933 215.495 C 917.855 246.112 917.504 260.794 918.055 293.67 C 905.742 280.857 892.015 268.155 878.394 256.717 C 868.967 248.8 857.858 241.407 848.536 233.486 C 845.907 216.352 843.752 203.905 838.066 187.161 C 837.932 197.919 838.726 218.014 840.11 228.674 C 823.592 216.032 805.292 205.787 787.266 195.469 C 746.966 172.078 705.217 151.279 662.272 133.197 L 662.042 133.736 C 666.863 136.985 671.011 139.561 676.25 142.104 C 710.892 158.921 743.335 181.846 777.038 199.882 C 756.171 196.064 748.192 193.936 727.944 203.18 C 781.627 201.118 784.751 209.779 826.739 240.73 C 801.059 241.311 779.297 247.656 757.571 261.483 C 775.169 255.297 820.735 242.749 837.137 251.85 C 855.838 262.228 882.7 295.086 899.16 310.399 C 862.551 306.747 841.412 308.715 807.574 323.735 C 833.947 317.67 885.604 310.469 910.574 324.428 C 920.78 330.133 950.502 373.072 958.2 384.006 C 916.05 374.37 875.878 377.835 835.725 394.31 C 877.472 386.47 924.486 381.516 965.788 395.201 C 979.346 412.248 999.462 446.058 1010.2 466.191 C 971.864 456.238 948.288 454.909 908.693 458.31 L 908.079 459.473 C 911.884 460.196 914.559 460.505 918.424 460.889 C 948.191 462.224 986.228 465.996 1014.63 475.526 C 1027.09 498.37 1040.79 532.017 1050.52 556.38 C 882.222 550.558 777.582 412.243 727.633 264.823 C 720.355 243.345 710.364 216.152 700.374 195.88 C 704.255 211.938 710.017 227.511 714.149 243.389 C 750.563 383.405 849.14 529.342 999.942 558.124 C 1009.67 559.981 1049.64 560.818 1053.95 564.969 C 1051.49 566.72 1045.59 567.369 1042.49 567.517 C 992.42 569.894 945.044 555.931 902.743 530.179 C 810.995 474.323 751.654 385.701 716.411 285.903 C 706.288 257.239 699.856 229.831 690.979 202.258 C 682.793 176.829 642.645 131.027 621.646 113.362 z" fill="rgb(125,215,151)" transform="translate(0,0)"></path>
<path d="M 1046.42 385.74 C 1046.72 382.499 1046.97 379.254 1047.17 376.005 L 1048.27 375.038 L 1048 372.892 C 1048.94 377.261 1049.1 384.103 1049.03 388.573 L 1046.42 385.74 z" fill="rgb(33,48,37)" transform="translate(0,0)"></path>
<path d="M 918.424 460.889 C 913.509 461.056 903.873 461.311 899.243 460.071 C 902.092 458.607 905.424 458.625 908.693 458.31 L 908.079 459.473 C 911.884 460.196 914.559 460.505 918.424 460.889 z" fill="rgb(57,102,67)" transform="translate(0,0)"></path>
<path d="M 1069.1 446.614 C 1069.19 443.185 1068.96 440.817 1070.3 437.66 C 1071.69 441.335 1071.17 446.537 1070.12 450.24 L 1069.1 446.614 z" fill="rgb(104,153,114)" transform="translate(0,0)"></path>
<path d="M 1063.33 951.265 C 1080.53 880.598 1094.34 866.252 1153.5 829.627 C 1235.88 778.63 1312.5 762.772 1407.11 790.371 C 1446.23 800.891 1473.68 808.799 1511.1 828.151 C 1529.38 837.6 1551.79 851.124 1569.93 859.217 C 1504.55 880.179 1500.92 882.939 1451.35 930.502 C 1439.54 941.835 1427.18 952.591 1414.32 962.733 C 1347.82 1015.09 1257.84 1051.36 1172.37 1043.5 C 1147.24 1041.19 1122.73 1035.49 1100.22 1023.8 C 1090.14 1018.65 1080.78 1012.22 1072.35 1004.68 C 1085.04 1011.27 1099.39 1019.7 1112.81 1024.12 C 1220.63 1059.69 1339.8 1016.32 1422.53 944.571 C 1429.99 938.101 1492.64 880.725 1495.24 876.499 C 1478.24 883.626 1434.87 926.912 1417.92 940.41 C 1348.23 995.915 1265.06 1035.29 1174 1030.02 C 1137.6 1027.91 1089.27 1016.44 1062.84 989.511 C 1070.99 982.771 1109.86 950.632 1117.66 952.741 L 1118.14 950.891 C 1124.19 946.253 1127.51 945.094 1135.1 945.095 L 1129.71 943.41 C 1139.5 934.435 1183.33 914.162 1196.92 908.364 C 1234.06 924.778 1262.79 941.074 1291.55 971.185 L 1292.59 968.852 C 1270.9 937.943 1244.19 918.871 1210.7 902.706 C 1223.19 897.181 1253.46 885.061 1266.15 882.1 C 1305.97 897.03 1328.73 918.394 1357.09 949.154 C 1335.82 915.389 1316.4 896.051 1281.28 878.108 C 1304.43 871.197 1327.92 865.497 1351.66 861.032 C 1378.04 874.064 1380.59 875.322 1403.6 894.164 L 1404.47 891.941 C 1392.05 878.513 1377.74 866.969 1361.98 857.674 C 1379.33 855.476 1396.65 853.3 1414.03 851.524 C 1425.84 850.318 1431.59 851.065 1441.38 858.087 C 1444.7 860.313 1457.89 870.1 1460.64 870.51 C 1457.68 865.737 1441.41 852.904 1436.6 849.495 C 1450.72 848.735 1464.86 848.787 1478.96 849.651 C 1486.12 850.083 1519.74 853.728 1523.61 852.941 C 1504 846.611 1481.53 844.081 1461.04 841.964 C 1458.26 841.677 1448.55 841.392 1447.39 840.011 L 1450.84 836.564 C 1447.46 836.949 1440.1 839.475 1437.59 839.407 C 1415.61 838.812 1392.73 837.417 1370.81 840.186 C 1382.11 827.435 1389.7 818.73 1402.78 807.647 C 1388.75 815.007 1373.94 828.384 1363.39 840.153 C 1341.22 841.67 1300.31 845.841 1279.77 853.241 C 1294.62 828.587 1316.86 803.948 1342.12 789.747 C 1311.7 798.973 1284.59 827.181 1268.33 853.692 C 1246.29 860.374 1219.85 867.89 1198.75 876.635 C 1204.37 862.054 1209.55 848.878 1217.34 835.152 C 1223 825.183 1229.44 816.596 1235.36 807.113 C 1209.59 829.728 1200.65 851.362 1186.92 881.961 C 1165.29 892.224 1145.38 900.47 1124.07 911.884 C 1132.57 888.36 1138.33 872.101 1149.83 849.633 C 1134.73 866.7 1119.72 897.083 1113.49 918.914 C 1096.5 928.537 1079.48 940.263 1063.33 951.265 z" fill="rgb(125,215,151)" transform="translate(0,0)"></path>
<path d="M 1135.1 945.095 C 1159.4 948.584 1202.96 976.384 1221.77 993.292 L 1221.16 993.963 C 1185.31 972.49 1159.62 958.552 1117.66 952.741 L 1118.14 950.891 C 1124.19 946.253 1127.51 945.094 1135.1 945.095 z" fill="url(#Gradient1)" transform="translate(0,0)"></path>
<path d="M 1291.55 971.185 L 1292.59 968.852 C 1298.38 976.124 1302.05 981.289 1307.13 989.087 C 1301.53 983.71 1296.49 977.227 1291.55 971.185 z" fill="rgb(33,48,37)" transform="translate(0,0)"></path>
<path d="M 1412.42 899.758 C 1415.35 902.553 1417.45 904.142 1419.39 907.625 C 1415.94 906.293 1412.72 902.673 1409.93 900.019 L 1412.42 899.758 z" fill="rgb(57,102,67)" transform="translate(0,0)"></path>
<path d="M 1403.6 894.164 L 1404.47 891.941 L 1412.42 899.758 L 1409.93 900.019 L 1403.6 894.164 z" fill="rgb(33,48,37)" transform="translate(0,0)"></path>
<path d="M 1003.08 1334.48 C 1040.16 1334.01 1080.84 1333.8 1117.77 1335.44 C 1254.23 1340.81 1389.1 1366.59 1517.91 1411.94 C 1608.63 1444.78 1747.8 1509.47 1764.89 1616.58 C 1777.98 1698.65 1706.97 1762.93 1643.17 1801.48 C 1523.13 1874 1380.55 1904.52 1242.98 1923.18 C 1014.87 1950.01 772.108 1937.68 552.819 1866.32 C 486.882 1844.56 416.227 1813.57 361.059 1770.86 C 324.294 1742.4 287.331 1701.01 281.56 1653.18 C 277.105 1616.26 291.436 1575.66 314.824 1547.38 C 421.895 1417.92 653.152 1366.85 809.794 1349.41 C 824.651 1347.1 856.403 1345.2 871.372 1344.9 C 871.378 1345.97 871.37 1347.05 871.348 1348.12 C 871.104 1359.88 859.434 1357.02 850.865 1357.54 C 843.866 1357.96 837.003 1358.61 830.034 1359.35 C 799.985 1362.42 770.04 1366.44 740.245 1371.4 C 619.205 1391.22 456.915 1437.02 367.303 1524.94 C 336.797 1554.87 312.877 1593.22 312.582 1637.17 C 312.298 1679.5 336.874 1714.79 365.512 1743.91 C 392.767 1771.62 426.324 1791.77 460.555 1809.59 C 615.487 1890.25 828.746 1921.28 1002.7 1923.2 C 1062.98 1923.81 1123.25 1921.6 1183.31 1916.6 C 1338.8 1902.17 1566.7 1855.8 1681.26 1743.56 C 1710.97 1714.44 1736.48 1680.91 1736.67 1637.39 C 1736.87 1594.15 1712.29 1556.12 1682.51 1526.61 C 1566.33 1411.48 1321.13 1364.64 1163.05 1352.22 C 1107.25 1347.83 1051.59 1347.91 995.681 1348 C 995.483 1344.13 994.989 1340.29 996.031 1336.6 C 998.838 1334.01 998.223 1334.85 1003.08 1334.48 z" fill="rgb(125,215,151)" transform="translate(0,0)"></path>
<path d="M 845.537 242.895 C 965.278 336.618 1044.13 461.556 1090.76 605.169 L 1077.97 618.552 C 1051.89 512.873 994.435 404.794 924.663 321.35 C 906.022 299.056 866.387 261.344 843.799 244.432 L 845.537 242.895 z" fill="rgb(125,215,151)" transform="translate(0,0)"></path>
<path d="M 1514.41 387.448 C 1529.62 385.852 1554.1 383.257 1568.88 384.827 C 1554.64 387.127 1537.07 388.322 1522.44 389.638 C 1520.11 387.437 1517.74 387.724 1514.41 387.448 z" fill="rgb(104,153,114)" transform="translate(0,0)"></path>
<path d="M 1340.78 851.374 C 1351.31 849.821 1380.61 845.34 1389.94 846.643 C 1374.69 849.789 1357.28 851.289 1341.56 853.66 L 1340.78 851.374 z" fill="rgb(104,153,114)" transform="translate(0,0)"></path>
<path d="M 843.799 244.432 C 839.629 241.497 811.073 220.044 809.663 217.766 C 817.897 221.702 837.484 236.741 845.537 242.895 L 843.799 244.432 z" fill="rgb(104,153,114)" transform="translate(0,0)"></path>
<path d="M 437.56 623.297 C 431.857 619.739 426.607 615.614 421.241 611.564 C 426.867 614.561 433.294 617.7 438.394 621.434 L 437.56 623.297 z" fill="rgb(104,153,114)" transform="translate(0,0)"></path>
<metadata><recraft-signature>{"signed_by": "recraft", "signature_b64": "EIuafKpDtc6iS4VvIAjM4bB3I8OO1PHB8npgtSLWKxfgy5lfgkaz4YAb3eTyOsSIhv0jPRFUxftXFNrxgQMODA==", "signing_algo": "Ed25519", "generation_timestamp": 1771794437, "identifier": "df91025b-395a-493e-b6ee-c5cca294097c"}</recraft-signature></metadata></svg>