<svg width="1024" height="1024" viewBox="0 0 1024 1024" fill="none" xmlns="http://www.w3.org/2000/svg">
  <defs>
    <linearGradient id="ring" x1="250" y1="250" x2="800" y2="800" gradientUnits="userSpaceOnUse">
      <stop offset="0" stop-color="#34D399"/>
      <stop offset="1" stop-color="#10B981"/>
    </linearGradient>
    <linearGradient id="leaf" x1="440" y1="340" x2="650" y2="720" gradientUnits="userSpaceOnUse">
      <stop offset="0" stop-color="#A7F3D0"/>
      <stop offset="1" stop-color="#34D399"/>
    </linearGradient>
  </defs>

  <rect width="1024" height="1024" rx="220" fill="#0F172A"/>
  <circle cx="512" cy="512" r="280" stroke="url(#ring)" stroke-width="52" stroke-linecap="round" stroke-dasharray="1220 520" transform="rotate(-28 512 512)"/>
  <path d="M512 706C512 640 512 590 512 540" stroke="#D1FAE5" stroke-width="24" stroke-linecap="round"/>
  <path d="M512 560C468 530 432 490 432 438C484 438 528 468 552 520" fill="url(#leaf)"/>
  <path d="M512 560C556 530 592 490 592 438C540 438 496 468 472 520" fill="url(#leaf)"/>
  <path d="M512 628C552 612 590 580 602 536C560 536 524 554 496 592" fill="#6EE7B7" opacity="0.85"/>
</svg>
